# xmcd
#
# Track frame offsets: 
#        150
#        11806
#        25789
#        38354
#        47964
#        63340
#        77682
#        86189
#        99879
#        112692
#        128994
#
# Disc length: 1969 seconds
#
# Revision: 0
# Processed by: cddbd v1.5.2PL0 Copyright (c) Steve Scherf et al.
# Submitted via: ExactAudioCopyFreeDBPlugin 1.0
#
DISCID=7c07af0b
DTITLE=We Happy Few - On A Low Down Track
DYEAR=2011
DGENRE=Blues
TTITLE0=Hey Sister
TTITLE1=Whiskey High
TTITLE2=Stop Bothering Me
TTITLE3=Lowdown Track
TTITLE4=History
TTITLE5=Sunnyland Avenue
TTITLE6=I Love My Baby
TTITLE7=Sittin' Pretty
TTITLE8=Perfect Ride
TTITLE9=Rough and Tumble Blues
TTITLE10=The End at Eastbrook
EXTD=
EXTT0=
EXTT1=
EXTT2=
EXTT3=
EXTT4=
EXTT5=
EXTT6=
EXTT7=
EXTT8=
EXTT9=
EXTT10=
PLAYORDER=
